<?xml version="1.0" encoding="UTF-8"?> <svg xmlns="http://www.w3.org/2000/svg" id="Capa_1" data-name="Capa 1" viewBox="0 0 1150 100"><defs><style>.cls-1{fill:#231f20;}</style></defs><polygon class="cls-1" points="159.61 79.4 234.45 3 310.14 79.98 310.14 96.75 234.34 19.5 159.61 96.28 159.61 79.4"></polygon><polygon class="cls-1" points="631.36 79.4 706.17 3 781.91 79.98 781.91 96.75 706.07 19.5 631.36 96.28 631.36 79.4"></polygon><polygon class="cls-1" points="639.94 6.28 508.83 6.28 493.25 18.21 560.66 18.21 560.66 96.24 572.55 96.24 572.55 18.21 624.4 18.21 639.94 6.28"></polygon><polygon class="cls-1" points="810.12 96.42 810.12 6.5 819.3 6.5 942.96 76.87 942.96 6.28 955.18 6.35 955.18 97 822.19 22.44 822.19 96.47 810.12 96.42"></polygon><path class="cls-1" d="M407,18.26v-.14h48.55L471.06,6.51H404v0c-42.22,1-76,20.7-76,44.89s33.79,43.89,76,44.84v0h67.11L455.52,84.66H407v0c-36.19-.09-65.45-14.93-65.45-33.16S370.78,18.36,407,18.26Z"></path><path class="cls-1" d="M1086,45.11h-62.66c9.89-19.92,33.29-27.8,62.27-28h45.93l15.57-10.83h-61.58v0c-37.61.32-69.2,17.34-74,39.64,0,0-.92,7.29-1,8.84l3.3,0h117.67c-2.46,16.63-31,32.12-62.2,30.75h-45.62l-15.54,10.76h61.16c40.81-.21,73.9-20.22,75.16-45.1l0-6.07Z"></path><path class="cls-1" d="M139.82,6.21l-12.26-.08,0,33.65s0,1.08,0,1.69c.15,5.59-.27,16.06-3.3,22.44a12.15,12.15,0,0,0-.59,1.09c-.16.26-.35.51-.52.75C115,78.1,92.68,88.28,66.23,87.56H18.35L2.85,96.47l65.37-.07h0c33-.16,49.34-7.14,61.21-19.06v0s8.82-7.42,10.46-21.56Z"></path><path class="cls-1" d="M104.35,15c0,5-4.72,9-10.5,9s-10.52-4-10.52-9S88,6,93.85,6,104.35,10,104.35,15Z"></path><path class="cls-1" d="M975.59,14.44c0,4.93,4.72,8.92,10.49,8.92s10.52-4,10.52-8.92-4.7-9-10.52-9S975.59,9.47,975.59,14.44Z"></path></svg> 